<svg id="Layer_1" data-name="Layer 1" xmlns="http://www.w3.org/2000/svg" viewBox="0 0 371.96 112.16"><defs><style>.cls-1{fill:#fc0;}.cls-2{fill:#22193a;}</style></defs><path class="cls-1" d="M1127.27,241.12A18.72,18.72,0,1,0,1146,259.84,18.74,18.74,0,0,0,1127.27,241.12Z" transform="translate(-774.02 -166.39)"/><path class="cls-2" d="M971.9,168.38v22.48a52.43,52.43,0,0,0-7.1-9c-10-10.1-23.6-15.44-39.35-15.44-31.42,0-49.88,21.27-54.3,45.19-4-22.8-21-43.2-53.07-43.2H774V276.43h44.06c15.91,0,29.42-5.2,39.09-15a53.14,53.14,0,0,0,13.9-27.6c4.1,23.1,21.49,44.62,54.38,44.62,17.3,0,31.71-6.1,41.69-17.63,8.57-9.89,13.37-23.35,13.53-37.91a60.55,60.55,0,0,0-4.42-23.48h27.69v77h32.62v-77h32v77h32.61v-108H971.9ZM833.83,238.79c-3.67,3.77-9,5.68-15.75,5.68H806.5V200.06h11.58c19.44,0,21.4,16.55,21.54,21.61C839.81,228.59,837.69,234.82,833.83,238.79Zm91.62,8.47c-20.19,0-22.81-17-23-24.26-.19-7.6,2.36-14.87,6.83-19.46,4-4.07,9.41-6.13,16.17-6.13s12.08,2,16,6c4.51,4.59,7,11.72,6.89,19.54C947.94,244.89,932.2,247.26,925.45,247.26Z" transform="translate(-774.02 -166.39)"/><rect class="cls-2" x="336.19" y="1.99" width="34.13" height="34.13"/></svg>